<?xml version="1.0" encoding="UTF-8" standalone="no"?>
<svg
   xmlns:dc="http://purl.org/dc/elements/1.1/"
   xmlns:cc="http://creativecommons.org/ns#"
   xmlns:rdf="http://www.w3.org/1999/02/22-rdf-syntax-ns#"
   xmlns:svg="http://www.w3.org/2000/svg"
   xmlns="http://www.w3.org/2000/svg"
   xmlns:sodipodi="http://sodipodi.sourceforge.net/DTD/sodipodi-0.dtd"
   xmlns:inkscape="http://www.inkscape.org/namespaces/inkscape"
   width="1000"
   height="1000"
   viewBox="0 0 749.99998 749.99998"
   version="1.1"
   id="svg3297"
   sodipodi:docname="American_express_logo_shorthand.svg"
   inkscape:version="0.92.2 (5c3e80d, 2017-08-06)">
  <metadata
     id="metadata3303">
    <rdf:RDF>
      <cc:Work
         rdf:about="">
        <dc:format>image/svg+xml</dc:format>
        <dc:type
           rdf:resource="http://purl.org/dc/dcmitype/StillImage" />
        <dc:title></dc:title>
      </cc:Work>
    </rdf:RDF>
  </metadata>
  <defs
     id="defs3301" />
  <sodipodi:namedview
     pagecolor="#ffffff"
     bordercolor="#666666"
     borderopacity="1"
     objecttolerance="10"
     gridtolerance="10"
     guidetolerance="10"
     inkscape:pageopacity="0"
     inkscape:pageshadow="2"
     inkscape:window-width="1366"
     inkscape:window-height="705"
     id="namedview3299"
     showgrid="false"
     units="px"
     inkscape:zoom="0.66792453"
     inkscape:cx="762.95277"
     inkscape:cy="521.90887"
     inkscape:window-x="-8"
     inkscape:window-y="-8"
     inkscape:window-maximized="1"
     inkscape:current-layer="svg3297" />
  <path
     style="opacity:1;fill:#016fd0;stroke-width:2.83018851"
     inkscape:connector-curvature="0"
     id="path3281"
     d="M 0,-5.3369547e-5 H 749.99998 V 122.00938 c -36.65094,0.0566 -73.33019,-0.0849 -109.98113,0.0849 -8.20755,23.03774 -16.18868,46.13208 -24.70755,69.0566 -9.0849,-22.72641 -16.69811,-46.01886 -24.87735,-69.0849 -47.51887,-0.11321 -95.03774,-0.0566 -142.5283,-0.0283 -0.0283,30.76415 0.28302,61.5283 -0.16981,92.29245 -14.23585,-30.53774 -27.48113,-61.5283 -41.23585,-92.26415 -38.40566,-0.14151 -76.78302,0 -115.18868,-0.0566 -39.90566,90.1415 -79.75471,180.36792 -119.57547,270.56603 32.12264,0.0283 64.27359,-0.0566 96.39623,0.0283 -0.19812,80.03773 0.0849,160.07547 -0.14151,240.1132 99.62264,0.19811 199.24528,0.16981 298.83961,0.0283 15.39623,-17.37736 31.13208,-34.44339 46.78302,-51.56603 15.50943,17.26415 30.99057,34.5849 46.75472,51.65094 29.88679,-0.0283 59.74528,0.0283 89.63207,-0.0283 V 749.99993 H 0 Z" />
  <path
     style="opacity:1;fill:#016fd0;stroke-width:2.83018851"
     inkscape:connector-curvature="0"
     id="path3283"
     d="m 311.91509,152.26409 c 24.67924,-0.25471 49.35848,0.0283 74.03773,-0.19811 31.27358,69.39622 61.04717,139.5 92.71698,208.69811 0.48113,-69.50943 0.11321,-139.04717 0.16981,-208.5849 29.94339,-0.0283 59.88679,-0.0849 89.83019,0.0566 15.48113,43.21698 30.73584,86.51887 46.49999,129.65094 16.52831,-42.90566 31.4151,-86.46226 47.12264,-129.67924 29.23585,-0.0849 58.4717,-0.0283 87.70755,-0.0566 v 210.42452 c -18.65094,0 -37.27358,0 -55.92453,0 -0.28302,-48.59434 0.45283,-97.18868 -0.36792,-145.75471 -18.65095,48.28301 -35.83019,97.13207 -53.74528,145.6981 -16.81132,0.0849 -33.59434,0.16982 -50.40566,-0.14151 -17.9434,-48.53773 -35.60378,-97.18867 -53.60377,-145.6981 -1.18868,48.59433 -0.14151,97.27358 -0.50944,145.89622 -40.4717,-0.22642 -80.94339,0.48113 -121.38679,-0.36793 -5.66038,-14.03773 -11.54717,-27.99056 -17.54717,-41.85849 -32.20754,0.11321 -64.41509,0.0283 -96.62264,0.0283 -5.80188,13.98113 -11.68867,27.93396 -17.32075,41.99999 -21.11321,0.39623 -42.19811,0.14151 -63.31132,0.19812 30.82075,-70.13208 62.03773,-140.09434 92.66038,-210.31132 m 7.86792,120.79245 c 18.90566,0.0849 37.83962,0.0283 56.77358,0.0283 -9.0283,-22.72641 -18.70754,-45.19811 -27.99056,-67.81131 -10.66981,22.10377 -19.07547,45.22641 -28.78302,67.78301 z" />
  <path
     style="opacity:1;fill:#016fd0;stroke-width:2.83018851"
     inkscape:connector-curvature="0"
     id="path3285"
     d="m 299.74527,392.68861 c 58.4717,-0.36792 116.9717,0.56604 175.41509,-0.48113 1.4434,1.3868 2.83019,2.80189 4.24529,4.24529 -0.76415,14.91509 -0.50944,29.85849 -0.48114,44.80188 -40.49999,0.0283 -81.02829,-0.11321 -121.5566,0.0849 0,10.92452 0,21.84905 0.14151,32.74528 39.48113,-0.16981 78.99057,-0.22642 118.4717,0.0283 -0.0849,15.79245 -0.0849,31.58491 -0.0566,47.37736 -39.53773,0.0283 -79.07546,0 -118.5849,0 0.0283,10.86792 0.0283,21.70754 0,32.57547 40.5283,-0.0283 81.0566,-0.0283 121.5849,0 0,16.10377 -0.0283,32.23585 0,48.33962 33.08491,-34.69811 65.71698,-69.84905 98.77359,-104.57547 -31.72642,-33.62264 -63,-67.72641 -95.37736,-100.69811 -0.59434,-1.18868 -1.75472,-3.53773 -2.34906,-4.69811 24.79246,0.50943 49.61321,0.0283 74.43396,0.28302 20.17925,22.47169 40.4151,44.88679 60.84906,67.10377 20.17924,-22.58491 40.83962,-44.77359 61.27358,-67.16038 24.48113,-0.0566 48.96227,0.0566 73.4717,-0.0566 v 0.96226 c -32.9717,34.5283 -66.0566,68.9434 -98.83019,103.66981 32.9717,35.00943 66.31132,69.67925 98.83019,105.0849 v 0.70755 c -24.70755,0.14151 -49.41509,0 -74.12264,0.11321 -20.85849,-22.5566 -41.40566,-45.36792 -61.92453,-68.20755 -20.80188,22.69812 -41.40566,45.50944 -62.20754,68.17925 -83.85849,-0.0849 -167.71698,0 -251.57547,-0.0283 -0.96226,-70.10378 -0.14151,-140.26415 -0.42453,-210.39623 z" />
  <path
     style="opacity:1;fill:#016fd0;stroke-width:2.83018851"
     inkscape:connector-curvature="0"
     id="path3287"
     d="m 692.88677,497.37729 c 18.67925,-20.66038 38.80189,-39.99056 57.11321,-60.96226 v 121.92452 c -18.70755,-20.63207 -37.86792,-40.83962 -57.11321,-60.96226 z" />
  <g
     id="#ffffffff"
     transform="matrix(2.8301886,0,0,2.8301886,0,-5.3369547e-5)">
    <path
       d="m 102.93,43.11 c 13.57,0.02 27.13,-0.03 40.7,0.02 4.86,10.86 9.54,21.81 14.57,32.6 0.16,-10.87 0.05,-21.74 0.06,-32.61 16.78,-0.01 33.57,-0.03 50.36,0.01 2.89,8.15 5.58,16.38 8.79,24.41 3.01,-8.1 5.83,-16.26 8.73,-24.4 12.95,-0.06 25.91,-0.01 38.86,-0.03 v 10.65 c -10.33,0.01 -20.66,-0.01 -30.99,0.02 -5.55,15.27 -10.81,30.66 -16.65,45.82 -5.57,-15.24 -10.96,-30.54 -16.43,-45.81 -10.58,-0.05 -21.16,-0.03 -31.74,-0.02 -0.02,24.57 0.11,49.14 -0.06,73.7 -11.19,-24.45 -21.71,-49.22 -32.76,-73.74 -8.72,0.08 -17.44,-0.02 -26.16,0.07 -10.82,24.81 -21.85,49.53 -32.74,74.31 7.46,-0.02 14.91,0.07 22.37,-0.07 1.99,-4.97 4.07,-9.9 6.12,-14.84 11.38,0 22.76,0.03 34.14,-0.01 2.12,4.9 4.2,9.83 6.2,14.79 14.29,0.3 28.59,0.05 42.89,0.13 0.13,-17.18 -0.24,-34.38 0.18,-51.55 6.36,17.14 12.6,34.33 18.94,51.48 5.94,0.11 11.87,0.08 17.81,0.05 6.33,-17.16 12.4,-34.42 18.99,-51.48 0.29,17.16 0.03,34.33 0.13,51.5 6.59,0 13.17,0 19.76,0 v 10.61 c -8.66,0.04 -17.31,0 -25.96,0.02 -7.22,7.91 -14.52,15.75 -21.65,23.73 -7.22,-7.85 -14.37,-15.77 -21.5,-23.71 -8.77,-0.09 -17.54,0.08 -26.3,-0.1 0.21,0.41 0.62,1.24 0.83,1.66 11.44,11.65 22.49,23.7 33.7,35.58 -11.68,12.27 -23.21,24.69 -34.9,36.95 -0.01,-5.69 0,-11.39 0,-17.08 -14.32,-0.01 -28.64,-0.01 -42.96,0 0.01,-3.84 0.01,-7.67 0,-11.51 13.96,0 27.93,0.01 41.9,0 -0.01,-5.58 -0.01,-11.16 0.02,-16.74 -13.95,-0.09 -27.91,-0.07 -41.86,-0.01 -0.05,-3.85 -0.05,-7.71 -0.05,-11.57 14.32,-0.07 28.64,-0.02 42.95,-0.03 -0.01,-5.28 -0.1,-10.56 0.17,-15.83 -0.5,-0.51 -0.99,-1.01 -1.5,-1.5 -20.65,0.37 -41.32,0.04 -61.98,0.17 0.1,24.78 -0.19,49.57 0.15,74.34 29.63,0.01 59.26,-0.02 88.89,0.01 7.35,-8.01 14.63,-16.07 21.98,-24.09 7.25,8.07 14.51,16.13 21.88,24.1 8.73,-0.04 17.46,0.01 26.19,-0.04 v 10.52 c -10.56,0.02 -21.11,0 -31.67,0.01 -5.57,-6.03 -11.04,-12.15 -16.52,-18.25 -5.53,6.05 -11.09,12.08 -16.53,18.22 -35.19,0.05 -70.39,0.06 -105.59,-0.01 0.08,-28.28 -0.02,-56.56 0.05,-84.84 -11.35,-0.03 -22.71,0 -34.06,-0.01 14.07,-31.87 28.15,-63.75 42.25,-95.6 z"
       id="path3290"
       inkscape:connector-curvature="0"
       style="opacity:1;fill:#ffffff" />
    <path
       d="m 112.99,96.48 c 3.43,-7.97 6.4,-16.14 10.17,-23.95 3.28,7.99 6.7,15.93 9.89,23.96 -6.69,0 -13.38,0.02 -20.06,-0.01 z"
       id="path3292"
       inkscape:connector-curvature="0"
       style="opacity:1;fill:#ffffff" />
    <path
       d="m 230.08,175.69 c 11.58,-12.27 23.27,-24.43 34.92,-36.63 v 15.14 c -6.47,7.41 -13.58,14.24 -20.18,21.54 6.8,7.11 13.57,14.25 20.18,21.54 v 15.54 c -11.49,-12.51 -23.27,-24.76 -34.92,-37.13 z"
       id="path3294"
       inkscape:connector-curvature="0"
       style="opacity:1;fill:#ffffff" />
  </g>
</svg>
